<svg xmlns="http://www.w3.org/2000/svg" xmlns:xlink="http://www.w3.org/1999/xlink" width="6912" zoomAndPan="magnify" viewBox="0 0 5184 2592.000001" height="3456" preserveAspectRatio="xMidYMid meet" version="1.0"><defs><clipPath id="c9c08fea46"><path d="M 758 82 L 1756.378906 82 L 1756.378906 1155.941406 L 758 1155.941406 Z M 758 82 " clip-rule="nonzero"/></clipPath><clipPath id="fa63ca295f"><path d="M 1537.421875 82 L 2425.8125 82 L 2425.8125 1155.941406 L 1537.421875 1155.941406 Z M 1537.421875 82 " clip-rule="nonzero"/></clipPath><clipPath id="b760722a2e"><path d="M 2319 82 L 2977 82 L 2977 1155.941406 L 2319 1155.941406 Z M 2319 82 " clip-rule="nonzero"/></clipPath><clipPath id="bae89619ed"><path d="M 2753.644531 83 L 3570 83 L 3570 1154 L 2753.644531 1154 Z M 2753.644531 83 " clip-rule="nonzero"/></clipPath><clipPath id="6798f8e766"><path d="M 2369 1155.210938 L 3027 1155.210938 L 3027 2229 L 2369 2229 Z M 2369 1155.210938 " clip-rule="nonzero"/></clipPath><clipPath id="1a042c9d55"><path d="M 2890 1155.210938 L 3548 1155.210938 L 3548 2229 L 2890 2229 Z M 2890 1155.210938 " clip-rule="nonzero"/></clipPath><clipPath id="1d36269b7e"><path d="M 3245.421875 1156 L 4117 1156 L 4117 2227 L 3245.421875 2227 Z M 3245.421875 1156 " clip-rule="nonzero"/></clipPath><clipPath id="00a35e02ea"><path d="M 3955.457031 1157 L 4772 1157 L 4772 2228 L 3955.457031 2228 Z M 3955.457031 1157 " clip-rule="nonzero"/></clipPath><clipPath id="ae01aabcb0"><path d="M 4380.242188 1957.3125 L 4652 1957.3125 L 4652 2229 L 4380.242188 2229 Z M 4380.242188 1957.3125 " clip-rule="nonzero"/></clipPath><clipPath id="56d09285f5"><path d="M 774 869 L 4637 869 L 4637 2576 L 774 2576 Z M 774 869 " clip-rule="nonzero"/></clipPath><clipPath id="94a5215201"><path d="M 1778.726562 -536.265625 L 4638.027344 896.53125 L 3270.675781 3625.222656 L 411.375 2192.421875 Z M 1778.726562 -536.265625 " clip-rule="nonzero"/></clipPath><clipPath id="786a116958"><path d="M 1778.726562 -536.265625 L 4638.027344 896.53125 L 3270.675781 3625.222656 L 411.375 2192.421875 Z M 1778.726562 -536.265625 " clip-rule="nonzero"/></clipPath><clipPath id="d6b4f4d0db"><path d="M 774 869 L 4637 869 L 4637 1927 L 774 1927 Z M 774 869 " clip-rule="nonzero"/></clipPath><clipPath id="3598bdecd9"><path d="M 1778.726562 -536.265625 L 4638.027344 896.53125 L 3270.675781 3625.222656 L 411.375 2192.421875 Z M 1778.726562 -536.265625 " clip-rule="nonzero"/></clipPath><clipPath id="ee9583d93b"><path d="M 1778.726562 -536.265625 L 4638.027344 896.53125 L 3270.675781 3625.222656 L 411.375 2192.421875 Z M 1778.726562 -536.265625 " clip-rule="nonzero"/></clipPath><clipPath id="4dc128a979"><path d="M 774 869 L 4637 869 L 4637 2576 L 774 2576 Z M 774 869 " clip-rule="nonzero"/></clipPath><clipPath id="2c7875ab90"><path d="M 1778.726562 -536.265625 L 4638.027344 896.53125 L 3270.675781 3625.222656 L 411.375 2192.421875 Z M 1778.726562 -536.265625 " clip-rule="nonzero"/></clipPath><clipPath id="466ad1e692"><path d="M 1778.726562 -536.265625 L 4638.027344 896.53125 L 3270.675781 3625.222656 L 411.375 2192.421875 Z M 1778.726562 -536.265625 " clip-rule="nonzero"/></clipPath></defs><path fill="#000000" d="M 1104.984375 1152.636719 L 761.859375 1152.636719 L 1160.839844 85.210938 L 1503.96875 85.210938 C 1550.128906 85.210938 1592.082031 88.929688 1629.765625 96.375 C 1667.515625 103.820312 1697.515625 118.957031 1719.832031 141.78125 C 1742.152344 164.609375 1753.371094 198.847656 1753.371094 244.503906 C 1753.371094 289.164062 1739.957031 347.480469 1713.125 419.433594 L 1563.542969 819.15625 C 1537.203125 889.128906 1507.199219 946.070312 1473.480469 989.992188 C 1439.695312 1033.910156 1403.230469 1067.777344 1364.023438 1091.59375 C 1324.8125 1115.414062 1283.410156 1131.542969 1239.746094 1139.980469 C 1196.085938 1148.414062 1151.144531 1152.636719 1104.984375 1152.636719 Z M 1175.71875 945.699219 C 1231.273438 945.699219 1272.492188 907.984375 1299.261719 832.558594 L 1469.757812 376.261719 C 1479.148438 352.4375 1483.90625 330.851562 1483.90625 311.496094 C 1483.90625 298.097656 1480.308594 286.683594 1473.113281 277.253906 C 1465.917969 267.828125 1451.894531 263.113281 1431.039062 263.113281 L 1345.425781 263.113281 L 1090.839844 945.699219 Z M 1175.71875 945.699219 " fill-opacity="1" fill-rule="nonzero"/><g clip-path="url(#c9c08fea46)"><path stroke-linecap="butt" transform="matrix(6.097866, 0, 0, 6.097866, -16414.733918, -19.161445)" fill="none" stroke-linejoin="round" d="M 2873.089899 192.165274 L 2816.820218 192.165274 L 2882.249737 17.116213 L 2938.52006 17.116213 C 2946.089946 17.116213 2952.969914 17.726058 2959.149714 18.947028 C 2965.340404 20.167998 2970.260158 22.650296 2973.919865 26.39328 C 2977.580213 30.136905 2979.419996 35.751702 2979.419996 43.238952 C 2979.419996 50.562851 2977.2202 60.126262 2972.819967 71.925984 L 2948.289742 137.477216 C 2943.970224 148.952157 2939.04983 158.29008 2933.520232 165.492907 C 2927.979744 172.695093 2921.999809 178.249034 2915.570178 182.154729 C 2909.139906 186.061064 2902.350262 188.706072 2895.189714 190.089753 C 2888.029807 191.472793 2880.659786 192.165274 2873.089899 192.165274 Z M 2884.689756 158.229224 C 2893.800268 158.229224 2900.559805 152.044299 2904.949788 139.675091 L 2932.909747 64.846151 C 2934.449732 60.939175 2935.229975 57.399258 2935.229975 54.22512 C 2935.229975 52.027887 2934.639988 50.156074 2933.460016 48.609683 C 2932.280044 47.063932 2929.980316 46.290737 2926.56019 46.290737 L 2912.520315 46.290737 L 2870.770312 158.229224 Z M 2884.689756 158.229224 " stroke="#020000" stroke-width="1" stroke-opacity="1" stroke-miterlimit="2"/></g><path fill="#000000" d="M 1782.839844 1152.179688 C 1646.296875 1152.179688 1567.59375 1112.636719 1546.726562 1033.546875 C 1542.550781 1020.445312 1540.761719 1005.886719 1540.761719 989.878906 C 1540.761719 952.027344 1550.898438 906.417969 1570.574219 853.042969 L 1748.851562 376.316406 C 1775.683594 306.449219 1810.855469 250.039062 1854.980469 207.097656 C 1899.105469 164.15625 1949.785156 133.105469 2005.828125 113.9375 C 2061.875 94.765625 2120.898438 85.183594 2181.714844 85.183594 C 2243.128906 85.183594 2294.40625 94.765625 2336.144531 113.9375 C 2377.878906 133.105469 2404.710938 164.277344 2417.230469 207.460938 C 2420.808594 221.53125 2422.597656 236.820312 2422.597656 253.3125 C 2422.597656 288.25 2414.25 329.25 2397.554688 376.316406 L 2219.277344 853.042969 C 2190.066406 929.707031 2153.097656 989.878906 2108.378906 1033.546875 C 2063.664062 1077.214844 2013.578125 1107.902344 1958.128906 1125.617188 C 1902.679688 1143.324219 1844.25 1152.179688 1782.839844 1152.179688 Z M 1847.230469 979.6875 C 1863.328125 979.6875 1878.234375 977.261719 1891.347656 972.410156 C 1905.066406 967.554688 1918.179688 956.882812 1930.703125 940.382812 C 1943.222656 923.886719 1956.339844 898.652344 1969.457031 864.691406 L 2158.464844 358.851562 C 2168.597656 332.164062 2173.371094 311.296875 2173.371094 296.257812 C 2173.371094 294.796875 2173.371094 289.949219 2172.773438 281.699219 C 2172.773438 273.453125 2167.410156 266.78125 2157.867188 261.683594 C 2147.730469 256.589844 2134.617188 254.046875 2118.519531 254.046875 C 2102.417969 254.046875 2087.511719 256.589844 2073.800781 261.683594 C 2060.085938 266.78125 2046.96875 276.96875 2035.042969 292.253906 C 2023.714844 307.539062 2011.789062 329.738281 2000.464844 358.851562 L 1811.457031 864.691406 C 1799.53125 897.199219 1793.570312 921.703125 1793.570312 938.203125 L 1793.570312 952.027344 C 1793.570312 960.761719 1798.335938 967.554688 1808.476562 972.410156 C 1818.011719 977.261719 1831.128906 979.6875 1847.230469 979.6875 Z M 1847.230469 979.6875 " fill-opacity="1" fill-rule="nonzero"/><g clip-path="url(#fa63ca295f)"><path stroke-linecap="butt" transform="matrix(5.962358, 0, 0, 5.962358, -73223.028952, -198.121929)" fill="none" stroke-linejoin="round" d="M 12579.900695 226.471082 C 12556.99986 226.471082 12543.79986 219.838979 12540.300038 206.574119 C 12539.599681 204.376739 12539.299621 201.934988 12539.299621 199.250176 C 12539.299621 192.901754 12540.99974 185.2522 12544.299741 176.300205 L 12574.200218 96.344157 C 12578.700456 84.62611 12584.599444 75.165062 12592.00004 67.962977 C 12599.400636 60.760892 12607.900576 55.55309 12617.30004 52.338259 C 12626.70016 49.122774 12636.599505 47.515686 12646.799565 47.515686 C 12657.099863 47.515686 12665.700042 49.122774 12672.70034 52.338259 C 12679.699983 55.55309 12684.200221 60.781202 12686.299983 68.023906 C 12686.900102 70.383763 12687.200162 72.948028 12687.200162 75.714079 C 12687.200162 81.573758 12685.800102 88.450232 12682.999983 96.344157 L 12653.099505 176.300205 C 12648.20028 189.158216 12641.999922 199.250176 12634.499743 206.574119 C 12627.000219 213.898062 12618.599862 219.044935 12609.299981 222.016049 C 12600.0001 224.985852 12590.200337 226.471082 12579.900695 226.471082 Z M 12590.700218 197.540884 C 12593.400099 197.540884 12595.900159 197.134035 12598.099504 196.320336 C 12600.400397 195.505983 12602.599742 193.716108 12604.700159 190.948746 C 12606.799921 188.182039 12608.999921 183.949758 12611.199921 178.253868 L 12642.900101 93.414973 C 12644.599565 88.938975 12645.40016 85.439154 12645.40016 82.916819 C 12645.40016 82.671792 12645.40016 81.858749 12645.299922 80.475068 C 12645.299922 79.092042 12644.400399 77.973043 12642.799863 77.11807 C 12641.099743 76.263752 12638.900398 75.837248 12636.200517 75.837248 C 12633.499981 75.837248 12630.999922 76.263752 12628.700339 77.11807 C 12626.4001 77.973043 12624.2001 79.681679 12622.199921 82.245288 C 12620.299981 84.808898 12618.299802 88.532126 12616.400517 93.414973 L 12584.700337 178.253868 C 12582.700159 183.706042 12581.700397 187.81581 12581.700397 190.583171 L 12581.700397 192.901754 C 12581.700397 194.366673 12582.499682 195.505983 12584.200456 196.320336 C 12585.799682 197.134035 12587.999682 197.540884 12590.700218 197.540884 Z M 12590.700218 197.540884 " stroke="#020000" stroke-width="1" stroke-opacity="1" stroke-miterlimit="2"/></g><path fill="#000000" d="M 2574.167969 1152.636719 L 2322.570312 1152.636719 L 2721.554688 85.210938 L 2973.148438 85.210938 Z M 2574.167969 1152.636719 " fill-opacity="1" fill-rule="nonzero"/><g clip-path="url(#b760722a2e)"><path stroke-linecap="butt" transform="matrix(6.097866, 0, 0, 6.097866, -42112.339217, -150.686308)" fill="none" stroke-linejoin="round" d="M 7328.220139 213.734271 L 7286.96019 213.734271 L 7352.390351 38.685211 L 7393.649659 38.685211 Z M 7328.220139 213.734271 " stroke="#020000" stroke-width="1" stroke-opacity="1" stroke-miterlimit="2"/></g><path fill="#000000" d="M 3007.726562 1150.933594 L 2756.691406 1150.933594 L 3088.574219 264.238281 L 2926.285156 264.238281 L 2993.148438 86.90625 L 3566.945312 86.90625 L 3501.304688 264.238281 L 3338.402344 264.238281 Z M 3007.726562 1150.933594 " fill-opacity="1" fill-rule="nonzero"/><g clip-path="url(#bae89619ed)"><path stroke-linecap="butt" transform="matrix(6.078487, 0, 0, 6.078487, -100020.801998, -410.455344)" fill="none" stroke-linejoin="round" d="M 16949.699209 256.871308 L 16908.400256 256.871308 L 16962.99983 110.996965 L 16936.300907 110.996965 L 16947.300894 81.823254 L 17041.698869 81.823254 L 17030.900027 110.996965 L 17004.100209 110.996965 Z M 16949.699209 256.871308 " stroke="#020000" stroke-width="1" stroke-opacity="1" stroke-miterlimit="2"/></g><path fill="#000000" d="M 2872.921875 2225.867188 L 2372.710938 2225.867188 L 2771.691406 1158.445312 L 3023.289062 1158.445312 L 2701.691406 2018.933594 L 2950.359375 2018.933594 Z M 2872.921875 2225.867188 " fill-opacity="1" fill-rule="nonzero"/><g clip-path="url(#6798f8e766)"><path stroke-linecap="butt" transform="matrix(6.097866, 0, 0, 6.097866, -57812.193526, 412.894155)" fill="none" stroke-linejoin="round" d="M 9951.86048 297.312686 L 9869.829995 297.312686 L 9935.259514 122.264266 L 9976.519464 122.264266 L 9923.780089 263.377276 L 9964.559594 263.377276 Z M 9951.86048 297.312686 " stroke="#020000" stroke-width="1" stroke-opacity="1" stroke-miterlimit="2"/></g><path fill="#000000" d="M 3144.996094 2225.867188 L 2893.394531 2225.867188 L 3292.378906 1158.445312 L 3543.976562 1158.445312 Z M 3144.996094 2225.867188 " fill-opacity="1" fill-rule="nonzero"/><g clip-path="url(#1a042c9d55)"><path stroke-linecap="butt" transform="matrix(6.097866, 0, 0, 6.097866, -41541.513067, 922.547677)" fill="none" stroke-linejoin="round" d="M 7328.220463 213.733695 L 7286.959874 213.733695 L 7352.390034 38.685275 L 7393.649983 38.685275 Z M 7328.220463 213.733695 " stroke="#020000" stroke-width="1" stroke-opacity="1" stroke-miterlimit="2"/></g><path fill="#000000" d="M 3490.4375 2223.660156 C 3442.261719 2223.660156 3397.660156 2216.640625 3355.441406 2202.605469 C 3284.078125 2177.445312 3248.398438 2130.011719 3248.398438 2060.328125 C 3248.398438 2045.324219 3250.179688 2029.113281 3253.746094 2011.6875 C 3256.128906 1999.105469 3260.882812 1981.078125 3268.613281 1957.609375 C 3276.347656 1934.136719 3284.078125 1911.027344 3292.402344 1888.277344 C 3301.320312 1865.53125 3307.867188 1849.320312 3312.621094 1839.640625 L 3565.957031 1839.640625 C 3565.957031 1842.546875 3558.226562 1863.597656 3543.359375 1902.796875 L 3512.433594 1986.277344 C 3506.488281 2002.25 3503.515625 2014.589844 3503.515625 2023.300781 C 3503.515625 2045.566406 3517.199219 2056.695312 3543.957031 2056.695312 C 3568.339844 2056.695312 3589.152344 2045.324219 3606.992188 2022.578125 C 3612.347656 2017.253906 3615.914062 2011.6875 3618.886719 2005.878906 L 3631.371094 1976.84375 C 3653.378906 1926.03125 3664.679688 1891.425781 3664.679688 1873.03125 C 3664.679688 1852.710938 3655.160156 1833.835938 3637.320312 1816.410156 C 3624.832031 1805.277344 3611.75 1794.632812 3598.074219 1784.46875 L 3546.933594 1744.542969 C 3522.546875 1726.636719 3500.542969 1707.035156 3480.324219 1685.742188 C 3449.992188 1651.867188 3435.125 1610.96875 3435.125 1563.054688 C 3435.125 1534.503906 3439.886719 1504.257812 3449.992188 1472.320312 C 3461.886719 1429.246094 3480.917969 1386.417969 3507.085938 1343.824219 C 3567.148438 1250.421875 3650.402344 1193.070312 3756.257812 1171.78125 C 3797.292969 1163.550781 3836.539062 1159.4375 3874.601562 1159.4375 C 3926.933594 1159.4375 3976.292969 1167.421875 4022.679688 1183.394531 C 4082.742188 1204.6875 4113.070312 1243.648438 4113.070312 1300.269531 C 4113.070312 1333.179688 4099.992188 1381.574219 4073.230469 1445.457031 L 4059.546875 1481.757812 L 3805.023438 1481.757812 L 3843.085938 1377.949219 C 3845.460938 1370.199219 3846.652344 1363.425781 3846.652344 1357.621094 C 3846.652344 1342.128906 3837.730469 1333.421875 3819.296875 1331.484375 L 3813.351562 1331.484375 C 3800.265625 1331.484375 3787.183594 1334.75 3774.097656 1341.285156 C 3761.019531 1347.820312 3751.5 1357.621094 3744.363281 1370.6875 C 3732.46875 1396.816406 3722.957031 1422.953125 3715.226562 1449.085938 C 3714.035156 1454.894531 3713.445312 1460.21875 3713.445312 1465.058594 C 3713.445312 1480.0625 3718.792969 1492.644531 3729.496094 1502.808594 C 3761.019531 1537.167969 3795.511719 1569.835938 3832.382812 1600.808594 C 3849.625 1615.328125 3866.273438 1630.328125 3882.332031 1645.8125 C 3925.152344 1686.464844 3946.558594 1734.378906 3946.558594 1789.550781 C 3946.558594 1801.167969 3945.371094 1813.019531 3943.582031 1825.125 C 3931.097656 1906.429688 3896.007812 1986.277344 3836.539062 2064.679688 C 3778.859375 2140.664062 3704.523438 2188.816406 3615.320312 2209.140625 C 3571.902344 2218.824219 3530.277344 2223.660156 3490.4375 2223.660156 Z M 3490.4375 2223.660156 " fill-opacity="1" fill-rule="nonzero"/><g clip-path="url(#1d36269b7e)"><path stroke-linecap="butt" transform="matrix(5.946873, 0, 0, 5.946873, -91754.088458, 1005.132596)" fill="none" stroke-linejoin="round" d="M 16015.900568 204.902235 C 16007.799541 204.902235 16000.299538 203.721862 15993.200219 201.361771 C 15981.200083 197.13095 15975.200344 189.154726 15975.200344 177.437039 C 15975.200344 174.914048 15975.499871 172.188088 15976.099582 169.257846 C 15976.500266 167.142106 15977.299662 164.110708 15978.599583 160.164306 C 15979.900162 156.217247 15981.200083 152.331276 15982.599847 148.505736 C 15984.099454 144.680853 15985.200348 141.954893 15985.999744 140.3272 L 16028.599601 140.3272 C 16028.599601 140.815902 16027.299679 144.355709 16024.799678 150.947277 L 16019.599335 164.984985 C 16018.599597 167.670877 16018.099728 169.745891 16018.099728 171.210684 C 16018.099728 174.954773 16020.400701 176.826161 16024.900177 176.826161 C 16029.000284 176.826161 16032.500022 174.914048 16035.499892 171.089165 C 16036.400444 170.193868 16037.000155 169.257846 16037.500024 168.281098 L 16039.599342 163.398674 C 16043.300079 154.854267 16045.200368 149.035164 16045.200368 145.94202 C 16045.200368 142.525046 16043.599606 139.351109 16040.599736 136.420866 C 16038.499762 134.548822 16036.299945 132.758884 16034.000286 131.04974 L 16025.400703 124.335996 C 16021.29994 121.32496 16017.599859 118.028847 16014.199963 114.448315 C 16009.099462 108.752044 16006.599462 101.874743 16006.599462 93.817725 C 16006.599462 89.016751 16007.400171 83.930701 16009.099462 78.560232 C 16011.099595 71.31706 16014.299806 64.115271 16018.700096 56.952894 C 16028.799942 41.246766 16042.799553 31.60278 16060.599743 28.022905 C 16067.500034 26.638905 16074.099485 25.947234 16080.499907 25.947234 C 16089.299832 25.947234 16097.599887 27.289851 16105.400074 29.975743 C 16115.499919 33.556275 16120.599764 40.107775 16120.599764 49.628929 C 16120.599764 55.162956 16118.400604 63.300768 16113.900471 74.04302 L 16111.599498 80.1472 L 16068.799956 80.1472 L 16075.200378 62.691204 C 16075.599748 61.387998 16075.80009 60.249006 16075.80009 59.272915 C 16075.80009 56.667817 16074.299826 55.203681 16071.200114 54.87788 L 16070.200377 54.87788 C 16067.999903 54.87788 16065.800086 55.427013 16063.599613 56.525936 C 16061.400453 57.624859 16059.79969 59.272915 16058.599611 61.470105 C 16056.599479 65.863827 16055.00003 70.258862 16053.700108 74.653241 C 16053.499767 75.629989 16053.400581 76.525286 16053.400581 77.339133 C 16053.400581 79.862124 16054.29982 81.977863 16056.09961 83.687007 C 16061.400453 89.464728 16067.200507 94.95803 16073.400588 100.166256 C 16076.299958 102.607796 16079.099487 105.13013 16081.799829 107.733915 C 16089.000304 114.569834 16092.599885 122.626852 16092.599885 131.904312 C 16092.599885 133.857807 16092.4002 135.850714 16092.09936 137.886316 C 16090.000042 151.558155 16084.099488 164.984985 16074.099485 178.168779 C 16064.400322 190.945977 16051.900318 199.043063 16036.900313 202.460695 C 16029.599338 204.089045 16022.599861 204.902235 16015.900568 204.902235 Z M 16015.900568 204.902235 " stroke="#020000" stroke-width="1" stroke-opacity="1" stroke-miterlimit="2"/></g><path fill="#000000" d="M 4209.542969 2224.164062 L 3958.507812 2224.164062 L 4290.390625 1337.472656 L 4128.101562 1337.472656 L 4194.964844 1160.140625 L 4768.761719 1160.140625 L 4703.121094 1337.472656 L 4540.21875 1337.472656 Z M 4209.542969 2224.164062 " fill-opacity="1" fill-rule="nonzero"/><g clip-path="url(#00a35e02ea)"><path stroke-linecap="butt" transform="matrix(6.078487, 0, 0, 6.078487, -98818.985711, 662.778715)" fill="none" stroke-linejoin="round" d="M 16949.699229 256.870717 L 16908.400275 256.870717 L 16962.99985 110.997017 L 16936.300927 110.997017 L 16947.300914 81.823306 L 17041.698889 81.823306 L 17030.900046 110.997017 L 17004.100229 110.997017 Z M 16949.699229 256.870717 " stroke="#020000" stroke-width="1" stroke-opacity="1" stroke-miterlimit="2"/></g><g clip-path="url(#ae01aabcb0)"><path fill="#117554" d="M 4651.324219 2092.855469 C 4651.324219 2095.074219 4651.269531 2097.289062 4651.160156 2099.503906 C 4651.054688 2101.722656 4650.890625 2103.933594 4650.671875 2106.140625 C 4650.457031 2108.347656 4650.183594 2110.546875 4649.859375 2112.742188 C 4649.53125 2114.9375 4649.152344 2117.121094 4648.722656 2119.296875 C 4648.289062 2121.472656 4647.800781 2123.636719 4647.261719 2125.789062 C 4646.722656 2127.941406 4646.132812 2130.078125 4645.488281 2132.199219 C 4644.84375 2134.324219 4644.148438 2136.429688 4643.402344 2138.515625 C 4642.65625 2140.605469 4641.855469 2142.675781 4641.007812 2144.722656 C 4640.160156 2146.773438 4639.261719 2148.800781 4638.3125 2150.804688 C 4637.363281 2152.8125 4636.367188 2154.792969 4635.320312 2156.75 C 4634.273438 2158.703125 4633.183594 2160.632812 4632.042969 2162.535156 C 4630.902344 2164.441406 4629.714844 2166.3125 4628.484375 2168.15625 C 4627.25 2170 4625.972656 2171.816406 4624.652344 2173.597656 C 4623.332031 2175.378906 4621.964844 2177.125 4620.558594 2178.839844 C 4619.152344 2180.554688 4617.703125 2182.234375 4616.214844 2183.878906 C 4614.722656 2185.523438 4613.195312 2187.128906 4611.625 2188.695312 C 4610.058594 2190.265625 4608.453125 2191.792969 4606.808594 2193.285156 C 4605.164062 2194.773438 4603.484375 2196.222656 4601.769531 2197.628906 C 4600.054688 2199.035156 4598.308594 2200.402344 4596.527344 2201.722656 C 4594.746094 2203.042969 4592.929688 2204.320312 4591.085938 2205.554688 C 4589.242188 2206.785156 4587.367188 2207.972656 4585.464844 2209.113281 C 4583.5625 2210.253906 4581.632812 2211.347656 4579.679688 2212.390625 C 4577.722656 2213.4375 4575.742188 2214.433594 4573.734375 2215.382812 C 4571.730469 2216.332031 4569.703125 2217.230469 4567.652344 2218.078125 C 4565.605469 2218.925781 4563.535156 2219.726562 4561.445312 2220.472656 C 4559.359375 2221.21875 4557.253906 2221.914062 4555.128906 2222.558594 C 4553.007812 2223.203125 4550.871094 2223.796875 4548.71875 2224.335938 C 4546.566406 2224.871094 4544.402344 2225.359375 4542.226562 2225.792969 C 4540.050781 2226.222656 4537.867188 2226.601562 4535.671875 2226.929688 C 4533.476562 2227.253906 4531.277344 2227.527344 4529.070312 2227.742188 C 4526.863281 2227.960938 4524.652344 2228.125 4522.433594 2228.234375 C 4520.21875 2228.339844 4518.003906 2228.394531 4515.785156 2228.394531 C 4513.566406 2228.394531 4511.347656 2228.339844 4509.132812 2228.234375 C 4506.917969 2228.125 4504.707031 2227.960938 4502.5 2227.742188 C 4500.292969 2227.527344 4498.089844 2227.253906 4495.894531 2226.929688 C 4493.703125 2226.601562 4491.515625 2226.222656 4489.339844 2225.792969 C 4487.164062 2225.359375 4485.003906 2224.871094 4482.851562 2224.335938 C 4480.699219 2223.796875 4478.5625 2223.203125 4476.4375 2222.558594 C 4474.316406 2221.914062 4472.210938 2221.21875 4470.121094 2220.472656 C 4468.03125 2219.726562 4465.964844 2218.925781 4463.914062 2218.078125 C 4461.867188 2217.230469 4459.839844 2216.332031 4457.832031 2215.382812 C 4455.828125 2214.433594 4453.847656 2213.4375 4451.890625 2212.390625 C 4449.933594 2211.347656 4448.003906 2210.253906 4446.101562 2209.113281 C 4444.199219 2207.972656 4442.324219 2206.785156 4440.480469 2205.554688 C 4438.636719 2204.320312 4436.824219 2203.042969 4435.042969 2201.722656 C 4433.261719 2200.402344 4431.511719 2199.035156 4429.796875 2197.628906 C 4428.082031 2196.222656 4426.402344 2194.773438 4424.761719 2193.285156 C 4423.117188 2191.792969 4421.511719 2190.265625 4419.941406 2188.695312 C 4418.375 2187.128906 4416.84375 2185.523438 4415.355469 2183.878906 C 4413.863281 2182.234375 4412.417969 2180.554688 4411.007812 2178.839844 C 4409.601562 2177.125 4408.238281 2175.378906 4406.917969 2173.597656 C 4405.59375 2171.816406 4404.316406 2170 4403.085938 2168.15625 C 4401.851562 2166.3125 4400.667969 2164.441406 4399.527344 2162.535156 C 4398.386719 2160.632812 4397.292969 2158.703125 4396.246094 2156.75 C 4395.203125 2154.792969 4394.203125 2152.8125 4393.257812 2150.804688 C 4392.308594 2148.800781 4391.410156 2146.773438 4390.558594 2144.722656 C 4389.710938 2142.675781 4388.914062 2140.605469 4388.167969 2138.515625 C 4387.417969 2136.429688 4386.722656 2134.324219 4386.078125 2132.199219 C 4385.433594 2130.078125 4384.84375 2127.941406 4384.304688 2125.789062 C 4383.765625 2123.636719 4383.28125 2121.472656 4382.847656 2119.296875 C 4382.414062 2117.121094 4382.035156 2114.9375 4381.710938 2112.742188 C 4381.382812 2110.546875 4381.113281 2108.347656 4380.894531 2106.140625 C 4380.679688 2103.933594 4380.515625 2101.722656 4380.40625 2099.503906 C 4380.296875 2097.289062 4380.242188 2095.074219 4380.242188 2092.855469 C 4380.242188 2090.636719 4380.296875 2088.417969 4380.40625 2086.203125 C 4380.515625 2083.988281 4380.679688 2081.777344 4380.894531 2079.570312 C 4381.113281 2077.363281 4381.382812 2075.160156 4381.710938 2072.96875 C 4382.035156 2070.773438 4382.414062 2068.585938 4382.847656 2066.410156 C 4383.28125 2064.238281 4383.765625 2062.074219 4384.304688 2059.921875 C 4384.84375 2057.769531 4385.433594 2055.632812 4386.078125 2053.507812 C 4386.722656 2051.386719 4387.417969 2049.28125 4388.167969 2047.191406 C 4388.914062 2045.105469 4389.710938 2043.035156 4390.558594 2040.984375 C 4391.410156 2038.9375 4392.308594 2036.910156 4393.257812 2034.902344 C 4394.203125 2032.898438 4395.203125 2030.917969 4396.246094 2028.960938 C 4397.292969 2027.003906 4398.386719 2025.074219 4399.527344 2023.171875 C 4400.667969 2021.269531 4401.851562 2019.398438 4403.085938 2017.550781 C 4404.316406 2015.707031 4405.59375 2013.894531 4406.917969 2012.113281 C 4408.238281 2010.332031 4409.601562 2008.582031 4411.007812 2006.867188 C 4412.417969 2005.152344 4413.863281 2003.472656 4415.355469 2001.832031 C 4416.84375 2000.1875 4418.375 1998.582031 4419.941406 1997.011719 C 4421.511719 1995.445312 4423.117188 1993.914062 4424.761719 1992.425781 C 4426.402344 1990.9375 4428.082031 1989.488281 4429.796875 1988.082031 C 4431.511719 1986.671875 4433.261719 1985.308594 4435.042969 1983.988281 C 4436.824219 1982.664062 4438.636719 1981.390625 4440.480469 1980.15625 C 4442.324219 1978.925781 4444.199219 1977.738281 4446.101562 1976.597656 C 4448.003906 1975.457031 4449.933594 1974.363281 4451.890625 1973.316406 C 4453.847656 1972.273438 4455.828125 1971.277344 4457.832031 1970.328125 C 4459.839844 1969.378906 4461.867188 1968.480469 4463.914062 1967.632812 C 4465.964844 1966.78125 4468.03125 1965.984375 4470.121094 1965.238281 C 4472.210938 1964.488281 4474.316406 1963.792969 4476.4375 1963.148438 C 4478.5625 1962.507812 4480.699219 1961.914062 4482.851562 1961.375 C 4485.003906 1960.835938 4487.164062 1960.351562 4489.339844 1959.917969 C 4491.515625 1959.484375 4493.703125 1959.105469 4495.894531 1958.78125 C 4498.089844 1958.457031 4500.292969 1958.183594 4502.5 1957.964844 C 4504.707031 1957.75 4506.917969 1957.585938 4509.132812 1957.476562 C 4511.347656 1957.367188 4513.566406 1957.3125 4515.785156 1957.3125 C 4518.003906 1957.3125 4520.21875 1957.367188 4522.433594 1957.476562 C 4524.652344 1957.585938 4526.863281 1957.75 4529.070312 1957.964844 C 4531.277344 1958.183594 4533.476562 1958.457031 4535.671875 1958.78125 C 4537.867188 1959.105469 4540.050781 1959.484375 4542.226562 1959.917969 C 4544.402344 1960.351562 4546.566406 1960.835938 4548.71875 1961.375 C 4550.871094 1961.914062 4553.007812 1962.507812 4555.128906 1963.148438 C 4557.253906 1963.792969 4559.359375 1964.488281 4561.445312 1965.238281 C 4563.535156 1965.984375 4565.605469 1966.78125 4567.652344 1967.632812 C 4569.703125 1968.480469 4571.730469 1969.378906 4573.734375 1970.328125 C 4575.742188 1971.277344 4577.722656 1972.273438 4579.679688 1973.316406 C 4581.632812 1974.363281 4583.5625 1975.457031 4585.464844 1976.597656 C 4587.367188 1977.738281 4589.242188 1978.925781 4591.085938 1980.15625 C 4592.929688 1981.390625 4594.746094 1982.664062 4596.527344 1983.988281 C 4598.308594 1985.308594 4600.054688 1986.671875 4601.769531 1988.082031 C 4603.484375 1989.488281 4605.164062 1990.9375 4606.808594 1992.425781 C 4608.453125 1993.914062 4610.058594 1995.445312 4611.625 1997.011719 C 4613.195312 1998.582031 4614.722656 2000.1875 4616.214844 2001.832031 C 4617.703125 2003.472656 4619.152344 2005.152344 4620.558594 2006.867188 C 4621.964844 2008.582031 4623.332031 2010.332031 4624.652344 2012.113281 C 4625.972656 2013.894531 4627.25 2015.707031 4628.484375 2017.550781 C 4629.714844 2019.398438 4630.902344 2021.269531 4632.042969 2023.171875 C 4633.183594 2025.074219 4634.273438 2027.003906 4635.320312 2028.960938 C 4636.367188 2030.917969 4637.363281 2032.898438 4638.3125 2034.902344 C 4639.261719 2036.910156 4640.160156 2038.9375 4641.007812 2040.984375 C 4641.855469 2043.035156 4642.65625 2045.105469 4643.402344 2047.191406 C 4644.148438 2049.28125 4644.84375 2051.386719 4645.488281 2053.507812 C 4646.132812 2055.632812 4646.722656 2057.769531 4647.261719 2059.921875 C 4647.800781 2062.074219 4648.289062 2064.238281 4648.722656 2066.410156 C 4649.152344 2068.585938 4649.53125 2070.773438 4649.859375 2072.96875 C 4650.183594 2075.160156 4650.457031 2077.363281 4650.671875 2079.570312 C 4650.890625 2081.777344 4651.054688 2083.988281 4651.160156 2086.203125 C 4651.269531 2088.417969 4651.324219 2090.636719 4651.324219 2092.855469 Z M 4651.324219 2092.855469 " fill-opacity="1" fill-rule="nonzero"/></g><g clip-path="url(#56d09285f5)"><g clip-path="url(#94a5215201)"><g clip-path="url(#786a116958)"><path fill="#000000" d="M 3711.882812 904.933594 C 3403.800781 947.125 3099.902344 1025.78125 2805.398438 1131.152344 C 2510.839844 1236.863281 2225.171875 1368.589844 1950.507812 1521.386719 C 1813.195312 1597.828125 1678.453125 1679.269531 1546.722656 1766.339844 C 1508.644531 1791.457031 1470.976562 1817.152344 1433.460938 1843.21875 C 1429.527344 1825.734375 1425.492188 1808.3125 1421.722656 1790.726562 C 1410.839844 1749.796875 1400.699219 1708.34375 1387.75 1668.125 C 1375.828125 1627.339844 1361.617188 1587.5625 1347.496094 1547.605469 C 1332.828125 1507.933594 1317.269531 1468.480469 1300.582031 1429.5 C 1283.789062 1390.507812 1266.046875 1351.78125 1246.941406 1313.261719 C 1237.195312 1293.976562 1227.523438 1274.695312 1216.859375 1255.246094 L 1200.589844 1225.796875 C 1196.164062 1217.527344 1186.234375 1201.640625 1181.894531 1194.234375 L 774.796875 1474.160156 C 781.171875 1482.546875 781.898438 1482.578125 787.632812 1490.460938 L 801.667969 1509.628906 C 811.195312 1522.679688 820.488281 1536.578125 829.867188 1550.371094 C 848.449219 1578.308594 866.363281 1607.214844 883.742188 1636.59375 C 900.988281 1666.09375 917.429688 1696.078125 933.28125 1726.433594 C 948.535156 1757.089844 964.191406 1787.683594 977.710938 1818.988281 C 992.375 1850.085938 1004.304688 1881.820312 1017.347656 1913.480469 C 1028.285156 1945.492188 1041.359375 1977.390625 1050.382812 2009.820312 L 1065.085938 2058.53125 L 1077.375 2107.476562 C 1086.425781 2140.214844 1090.671875 2173.144531 1097.851562 2206.132812 L 1178.199219 2575.679688 L 1416.324219 2327.757812 C 1437.753906 2305.429688 1466.03125 2278.332031 1492.105469 2253.769531 C 1518.867188 2228.65625 1546.085938 2203.738281 1573.75 2179.117188 C 1629.0625 2129.757812 1685.710938 2081.363281 1743.429688 2034.097656 C 1858.84375 1939.371094 1978.398438 1849.054688 2101.285156 1762.972656 C 2347.042969 1590.90625 2606.542969 1436.972656 2878.304688 1306.476562 C 3150.097656 1176.292969 3434.691406 1070.113281 3729.535156 998.203125 C 4024.242188 926.1875 4329.414062 888.992188 4636.695312 895.496094 C 4331.800781 857.347656 4019.773438 862.605469 3711.882812 904.933594 " fill-opacity="1" fill-rule="nonzero"/></g></g></g><g clip-path="url(#d6b4f4d0db)"><g clip-path="url(#3598bdecd9)"><g clip-path="url(#ee9583d93b)"><path fill="#000000" d="M 801.667969 1509.628906 L 802.039062 1510.148438 L 1140.082031 1277.675781 C 1144.4375 1285.050781 1154.351562 1300.96875 1158.792969 1309.207031 L 1175.046875 1338.6875 C 1185.710938 1358.132812 1195.382812 1377.417969 1205.128906 1396.699219 C 1224.238281 1435.21875 1241.976562 1473.949219 1258.769531 1512.941406 C 1275.457031 1551.917969 1291.015625 1591.371094 1305.6875 1631.046875 C 1319.804688 1671 1334.015625 1710.777344 1345.9375 1751.5625 C 1358.886719 1791.785156 1369.027344 1833.234375 1379.914062 1874.167969 C 1383.679688 1891.753906 1387.714844 1909.175781 1391.648438 1926.660156 C 1429.164062 1900.59375 1466.832031 1874.898438 1504.910156 1849.78125 C 1636.644531 1762.710938 1771.382812 1681.265625 1908.699219 1604.824219 C 2183.359375 1452.03125 2469.027344 1320.300781 2763.585938 1214.589844 C 3058.089844 1109.21875 3362.003906 1030.539062 3670.074219 988.371094 C 3738.125 978.980469 3806.402344 971.742188 3874.734375 966.089844 C 4124.007812 915.578125 4379.578125 890.046875 4636.695312 895.496094 C 4331.800781 857.347656 4019.773438 862.605469 3711.882812 904.933594 C 3403.800781 947.125 3099.902344 1025.78125 2805.398438 1131.152344 C 2510.839844 1236.863281 2225.171875 1368.589844 1950.507812 1521.386719 C 1813.195312 1597.828125 1678.453125 1679.269531 1546.722656 1766.339844 C 1508.644531 1791.457031 1470.976562 1817.152344 1433.460938 1843.21875 C 1429.527344 1825.734375 1425.492188 1808.3125 1421.722656 1790.726562 C 1410.839844 1749.796875 1400.699219 1708.34375 1387.75 1668.125 C 1375.828125 1627.339844 1361.617188 1587.5625 1347.496094 1547.605469 C 1332.828125 1507.933594 1317.269531 1468.480469 1300.582031 1429.5 C 1283.789062 1390.507812 1266.046875 1351.78125 1246.941406 1313.261719 C 1237.195312 1293.976562 1227.523438 1274.695312 1216.859375 1255.246094 L 1200.589844 1225.796875 C 1196.164062 1217.527344 1186.234375 1201.640625 1181.894531 1194.234375 L 774.796875 1474.160156 C 781.171875 1482.546875 781.898438 1482.578125 787.632812 1490.460938 L 801.667969 1509.628906 " fill-opacity="1" fill-rule="nonzero"/></g></g></g><g clip-path="url(#4dc128a979)"><g clip-path="url(#2c7875ab90)"><g clip-path="url(#466ad1e692)"><path fill="#117554" d="M 3768.894531 919.65625 C 3474.050781 991.566406 3189.457031 1097.75 2917.664062 1227.933594 C 2645.902344 1358.425781 2386.390625 1512.390625 2140.628906 1684.457031 C 2017.785156 1770.449219 1898.1875 1860.855469 1782.773438 1955.582031 C 1725.058594 2002.847656 1668.410156 2051.242188 1613.109375 2100.574219 C 1585.429688 2125.222656 1558.226562 2150.113281 1531.464844 2175.222656 C 1505.390625 2199.785156 1477.101562 2226.914062 1455.683594 2249.210938 L 1217.558594 2497.132812 L 1137.195312 2127.617188 C 1130.03125 2094.597656 1125.785156 2061.667969 1116.71875 2028.960938 L 1104.460938 1979.953125 L 1089.726562 1931.304688 C 1080.703125 1898.875 1067.644531 1866.949219 1056.691406 1834.964844 C 1043.648438 1803.304688 1031.734375 1771.539062 1017.054688 1740.472656 C 1003.550781 1709.136719 987.894531 1678.542969 972.625 1647.917969 C 956.773438 1617.5625 940.347656 1587.546875 923.085938 1558.078125 C 905.707031 1528.699219 887.792969 1499.792969 869.210938 1471.851562 C 859.832031 1458.0625 850.554688 1444.136719 841.027344 1431.085938 L 839.84375 1429.449219 L 774.796875 1474.160156 C 781.171875 1482.546875 781.898438 1482.578125 787.632812 1490.460938 L 801.667969 1509.628906 C 811.195312 1522.679688 820.488281 1536.578125 829.867188 1550.371094 C 848.449219 1578.308594 866.363281 1607.214844 883.742188 1636.59375 C 900.988281 1666.09375 917.429688 1696.078125 933.28125 1726.433594 C 948.535156 1757.089844 964.191406 1787.683594 977.710938 1818.988281 C 992.375 1850.085938 1004.304688 1881.820312 1017.347656 1913.480469 C 1028.285156 1945.492188 1041.359375 1977.390625 1050.382812 2009.820312 L 1065.085938 2058.53125 L 1077.375 2107.476562 C 1086.425781 2140.214844 1090.671875 2173.144531 1097.851562 2206.132812 L 1178.199219 2575.679688 L 1416.324219 2327.757812 C 1437.753906 2305.429688 1466.03125 2278.332031 1492.105469 2253.769531 C 1518.867188 2228.65625 1546.085938 2203.738281 1573.75 2179.117188 C 1629.0625 2129.757812 1685.710938 2081.363281 1743.429688 2034.097656 C 1858.84375 1939.371094 1978.398438 1849.054688 2101.285156 1762.972656 C 2347.042969 1590.90625 2606.542969 1436.972656 2878.304688 1306.476562 C 3150.097656 1176.292969 3434.691406 1070.113281 3729.535156 998.203125 C 4024.242188 926.1875 4329.414062 888.992188 4636.695312 895.496094 C 4411.839844 867.359375 4183.152344 863.015625 3955.109375 879.523438 C 3892.648438 891.457031 3830.496094 904.621094 3768.894531 919.65625 " fill-opacity="1" fill-rule="nonzero"/></g></g></g></svg>