<svg xmlns="http://www.w3.org/2000/svg" xmlns:xlink="http://www.w3.org/1999/xlink" width="1584" zoomAndPan="magnify" viewBox="0 0 1188 296.999993" height="396" preserveAspectRatio="xMidYMid meet" version="1.0"><defs><clipPath id="34bf5e226c"><path d="M 0 47 L 189.964844 47 L 189.964844 250 L 0 250 Z M 0 47 " clip-rule="nonzero"/></clipPath><clipPath id="7e01a3a3ab"><path d="M 0 46.570312 L 189.964844 46.570312 L 189.964844 250.363281 L 0 250.363281 Z M 0 46.570312 " clip-rule="nonzero"/></clipPath><clipPath id="8a77dc0c8a"><path d="M 148.160156 47 L 316.863281 47 L 316.863281 250 L 148.160156 250 Z M 148.160156 47 " clip-rule="nonzero"/></clipPath><clipPath id="2284614428"><path d="M 148.160156 46.570312 L 316.863281 46.570312 L 316.863281 250.363281 L 148.160156 250.363281 Z M 148.160156 46.570312 " clip-rule="nonzero"/></clipPath><clipPath id="2972f54525"><path d="M 303 47 L 427.824219 47 L 427.824219 250 L 303 250 Z M 303 47 " clip-rule="nonzero"/></clipPath><clipPath id="c3612b6fb2"><path d="M 302.679688 46.570312 L 427.824219 46.570312 L 427.824219 250.363281 L 302.679688 250.363281 Z M 302.679688 46.570312 " clip-rule="nonzero"/></clipPath><clipPath id="72ad8f2a5a"><path d="M 385.355469 47 L 540 47 L 540 250 L 385.355469 250 Z M 385.355469 47 " clip-rule="nonzero"/></clipPath><clipPath id="83601b487c"><path d="M 385.355469 46.570312 L 540.578125 46.570312 L 540.578125 250.363281 L 385.355469 250.363281 Z M 385.355469 46.570312 " clip-rule="nonzero"/></clipPath><clipPath id="988679bd02"><path d="M 511 47 L 635.972656 47 L 635.972656 250 L 511 250 Z M 511 47 " clip-rule="nonzero"/></clipPath><clipPath id="59f9cb23e5"><path d="M 510.828125 46.570312 L 635.972656 46.570312 L 635.972656 250.363281 L 510.828125 250.363281 Z M 510.828125 46.570312 " clip-rule="nonzero"/></clipPath><clipPath id="366d28769f"><path d="M 610 47 L 734.820312 47 L 734.820312 250 L 610 250 Z M 610 47 " clip-rule="nonzero"/></clipPath><clipPath id="426d4d5a4f"><path d="M 609.675781 46.570312 L 734.820312 46.570312 L 734.820312 250.363281 L 609.675781 250.363281 Z M 609.675781 46.570312 " clip-rule="nonzero"/></clipPath><clipPath id="12c5827428"><path d="M 677.335938 47 L 842.757812 47 L 842.757812 250 L 677.335938 250 Z M 677.335938 47 " clip-rule="nonzero"/></clipPath><clipPath id="f7c8a47719"><path d="M 677.335938 46.570312 L 842.757812 46.570312 L 842.757812 250.363281 L 677.335938 250.363281 Z M 677.335938 46.570312 " clip-rule="nonzero"/></clipPath><clipPath id="9b28414cf1"><path d="M 812.210938 47 L 967 47 L 967 250 L 812.210938 250 Z M 812.210938 47 " clip-rule="nonzero"/></clipPath><clipPath id="3f52612bba"><path d="M 812.210938 46.570312 L 967.429688 46.570312 L 967.429688 250.363281 L 812.210938 250.363281 Z M 812.210938 46.570312 " clip-rule="nonzero"/></clipPath><clipPath id="4af1d531e1"><path d="M 979.226562 59.769531 L 1188 59.769531 L 1188 233 L 979.226562 233 Z M 979.226562 59.769531 " clip-rule="nonzero"/></clipPath><clipPath id="72792c8bf9"><path d="M 892.898438 198.929688 L 944.40625 198.929688 L 944.40625 250.4375 L 892.898438 250.4375 Z M 892.898438 198.929688 " clip-rule="nonzero"/></clipPath></defs><g clip-path="url(#34bf5e226c)"><path fill="#100f0d" d="M 66.019531 249.941406 L 0.839844 249.941406 L 76.628906 47.183594 L 141.804688 47.183594 C 150.574219 47.183594 158.542969 47.890625 165.703125 49.304688 C 172.871094 50.71875 178.570312 53.59375 182.808594 57.929688 C 187.050781 62.265625 189.179688 68.769531 189.179688 77.441406 C 189.179688 85.925781 186.632812 97 181.535156 110.667969 L 153.121094 186.597656 C 148.117188 199.886719 142.421875 210.703125 136.015625 219.046875 C 129.597656 227.390625 122.671875 233.824219 115.222656 238.347656 C 107.777344 242.871094 99.910156 245.933594 91.617188 247.539062 C 83.324219 249.140625 74.789062 249.941406 66.019531 249.941406 Z M 79.453125 210.632812 C 90.007812 210.632812 97.835938 203.46875 102.921875 189.144531 L 135.308594 102.46875 C 137.09375 97.941406 137.996094 93.84375 137.996094 90.167969 C 137.996094 87.621094 137.3125 85.453125 135.945312 83.664062 C 134.578125 81.871094 131.914062 80.976562 127.953125 80.976562 L 111.691406 80.976562 L 63.332031 210.632812 Z M 79.453125 210.632812 " fill-opacity="1" fill-rule="nonzero"/></g><g clip-path="url(#7e01a3a3ab)"><path stroke-linecap="butt" transform="matrix(1.158296, 0, 0, 1.158296, -3261.868837, 27.3579)" fill="none" stroke-linejoin="round" d="M 2873.090496 192.164666 L 2816.818434 192.164666 L 2882.249966 17.116263 L 2938.518656 17.116263 C 2946.08972 17.116263 2952.96944 17.72667 2959.151071 18.947483 C 2965.339446 20.168296 2970.259795 22.650391 2973.918862 26.393768 C 2977.581301 30.137145 2979.419265 35.75221 2979.419265 43.238964 C 2979.419265 50.563842 2977.220453 60.12463 2972.819455 71.924698 L 2948.288533 137.477637 C 2943.968473 148.950582 2939.051497 158.28879 2933.520742 165.492262 C 2927.979869 172.695733 2922.000583 178.250095 2915.569394 182.155348 C 2909.141577 186.060601 2902.34954 188.704572 2895.18991 190.090633 C 2888.03028 191.473322 2880.66156 192.164666 2873.090496 192.164666 Z M 2884.68822 158.228087 C 2893.800476 158.228087 2900.558789 152.043084 2904.94967 139.67645 L 2932.910335 64.846006 C 2934.451527 60.937381 2935.230554 57.399721 2935.230554 54.226282 C 2935.230554 52.027469 2934.640382 50.155781 2933.460038 48.611216 C 2932.279694 47.063279 2929.979709 46.290997 2926.560084 46.290997 L 2912.520734 46.290997 L 2870.770277 158.228087 Z M 2884.68822 158.228087 " stroke="#020000" stroke-width="1" stroke-opacity="1" stroke-miterlimit="2"/></g><g clip-path="url(#8a77dc0c8a)"><path fill="#100f0d" d="M 194.777344 249.855469 C 168.84375 249.855469 153.894531 242.34375 149.929688 227.320312 C 149.136719 224.832031 148.796875 222.066406 148.796875 219.027344 C 148.796875 211.835938 150.722656 203.171875 154.460938 193.035156 L 188.324219 102.480469 C 193.417969 89.207031 200.101562 78.492188 208.480469 70.335938 C 216.863281 62.179688 226.492188 56.28125 237.136719 52.640625 C 247.78125 49 258.992188 47.179688 270.546875 47.179688 C 282.210938 47.179688 291.953125 49 299.878906 52.640625 C 307.808594 56.28125 312.902344 62.203125 315.28125 70.40625 C 315.960938 73.078125 316.300781 75.980469 316.300781 79.113281 C 316.300781 85.75 314.714844 93.539062 311.542969 102.480469 L 277.679688 193.035156 C 272.132812 207.597656 265.109375 219.027344 256.617188 227.320312 C 248.121094 235.617188 238.609375 241.445312 228.074219 244.808594 C 217.542969 248.171875 206.445312 249.855469 194.777344 249.855469 Z M 207.011719 217.089844 C 210.066406 217.089844 212.898438 216.628906 215.390625 215.707031 C 217.996094 214.785156 220.488281 212.757812 222.867188 209.625 C 225.242188 206.492188 227.734375 201.699219 230.226562 195.246094 L 266.128906 99.160156 C 268.054688 94.09375 268.960938 90.128906 268.960938 87.273438 C 268.960938 86.996094 268.960938 86.074219 268.847656 84.507812 C 268.847656 82.941406 267.828125 81.671875 266.015625 80.703125 C 264.089844 79.738281 261.597656 79.253906 258.542969 79.253906 C 255.484375 79.253906 252.652344 79.738281 250.046875 80.703125 C 247.441406 81.671875 244.949219 83.609375 242.6875 86.511719 C 240.535156 89.414062 238.269531 93.632812 236.117188 99.160156 L 200.214844 195.246094 C 197.949219 201.421875 196.816406 206.078125 196.816406 209.210938 L 196.816406 211.835938 C 196.816406 213.496094 197.722656 214.785156 199.648438 215.707031 C 201.460938 216.628906 203.953125 217.089844 207.011719 217.089844 Z M 207.011719 217.089844 " fill-opacity="1" fill-rule="nonzero"/></g><g clip-path="url(#2284614428)"><path stroke-linecap="butt" transform="matrix(1.132556, 0, 0, 1.132556, -14052.660029, -6.635822)" fill="none" stroke-linejoin="round" d="M 12579.899108 226.471223 C 12557.000816 226.471223 12543.801272 219.838685 12540.300479 206.57361 C 12539.60032 204.37656 12539.300252 201.934628 12539.300252 199.251261 C 12539.300252 192.901546 12541.000638 185.251536 12544.301386 176.301232 L 12574.201265 96.345181 C 12578.698836 84.625283 12584.600174 75.164519 12591.998402 67.962887 C 12599.40008 60.761255 12607.902006 55.553178 12617.300688 52.338656 C 12626.69937 49.124135 12636.598165 47.516874 12646.800477 47.516874 C 12657.099363 47.516874 12665.701312 49.124135 12672.69945 52.338656 C 12679.701037 55.553178 12684.198608 60.781949 12686.299084 68.02497 C 12686.89922 70.384125 12687.199288 72.946775 12687.199288 75.712919 C 12687.199288 81.572868 12685.79897 88.450288 12682.998336 96.345181 L 12653.098456 176.301232 C 12648.200794 189.159319 12641.999389 199.251261 12634.501138 206.57361 C 12626.999438 213.899408 12618.600983 219.045402 12609.298875 222.01504 C 12600.000216 224.984679 12590.201443 226.471223 12579.899108 226.471223 Z M 12590.701557 197.540528 C 12593.398719 197.540528 12595.899286 197.13354 12598.099785 196.319562 C 12600.400306 195.505584 12602.600805 193.715524 12604.701281 190.949379 C 12606.798308 188.183235 12608.998807 183.951242 12611.199305 178.253399 L 12642.899593 93.413482 C 12644.599978 88.940054 12645.40016 85.439261 12645.40016 82.918 C 12645.40016 82.673117 12645.40016 81.859139 12645.300137 80.476067 C 12645.300137 79.092995 12644.399933 77.972052 12642.79957 77.116685 C 12641.099185 76.264768 12638.898686 75.837085 12636.201523 75.837085 C 12633.500911 75.837085 12631.000344 76.264768 12628.699823 77.116685 C 12626.399302 77.972052 12624.198803 79.682784 12622.201799 82.245434 C 12620.301368 84.808084 12618.300915 88.533066 12616.400484 93.413482 L 12584.700196 178.253399 C 12582.699743 183.706359 12581.699516 187.817635 12581.699516 190.583779 L 12581.699516 192.901546 C 12581.699516 194.367395 12582.499698 195.505584 12584.200083 196.319562 C 12585.800446 197.13354 12588.000944 197.540528 12590.701557 197.540528 Z M 12590.701557 197.540528 " stroke="#020000" stroke-width="1" stroke-opacity="1" stroke-miterlimit="2"/></g><g clip-path="url(#2972f54525)"><path fill="#100f0d" d="M 351.269531 249.941406 L 303.476562 249.941406 L 379.265625 47.183594 L 427.054688 47.183594 Z M 351.269531 249.941406 " fill-opacity="1" fill-rule="nonzero"/></g><g clip-path="url(#c3612b6fb2)"><path stroke-linecap="butt" transform="matrix(1.158296, 0, 0, 1.158296, -8136.977215, 2.374621)" fill="none" stroke-linejoin="round" d="M 7328.220888 213.733665 L 7286.959431 213.733665 L 7352.390963 38.685262 L 7393.649048 38.685262 Z M 7328.220888 213.733665 " stroke="#020000" stroke-width="1" stroke-opacity="1" stroke-miterlimit="2"/></g><g clip-path="url(#72ad8f2a5a)"><path fill="#100f0d" d="M 433.621094 249.625 L 385.9375 249.625 L 448.980469 81.1875 L 418.152344 81.1875 L 430.855469 47.5 L 539.851562 47.5 L 527.382812 81.1875 L 496.4375 81.1875 Z M 433.621094 249.625 " fill-opacity="1" fill-rule="nonzero"/></g><g clip-path="url(#83601b487c)"><path stroke-linecap="butt" transform="matrix(1.154678, 0, 0, 1.154678, -19137.820018, -46.979467)" fill="none" stroke-linejoin="round" d="M 16949.697604 256.872041 L 16908.401591 256.872041 L 16962.999474 110.998026 L 16936.301011 110.998026 L 16947.302456 81.823223 L 17041.697693 81.823223 L 17030.899227 110.998026 L 17004.099275 110.998026 Z M 16949.697604 256.872041 " stroke="#020000" stroke-width="1" stroke-opacity="1" stroke-miterlimit="2"/></g><g clip-path="url(#988679bd02)"><path fill="#100f0d" d="M 606.582031 249.941406 L 511.566406 249.941406 L 587.355469 47.183594 L 635.144531 47.183594 L 574.058594 210.632812 L 621.292969 210.632812 Z M 606.582031 249.941406 " fill-opacity="1" fill-rule="nonzero"/></g><g clip-path="url(#59f9cb23e5)"><path stroke-linecap="butt" transform="matrix(1.158296, 0, 0, 1.158296, -10920.613434, -94.434575)" fill="none" stroke-linejoin="round" d="M 9951.858977 297.312664 L 9869.828435 297.312664 L 9935.259967 122.264261 L 9976.518052 122.264261 L 9923.780277 263.376085 L 9964.55948 263.376085 Z M 9951.858977 297.312664 " stroke="#020000" stroke-width="1" stroke-opacity="1" stroke-miterlimit="2"/></g><g clip-path="url(#366d28769f)"><path fill="#100f0d" d="M 658.265625 249.941406 L 610.472656 249.941406 L 686.261719 47.183594 L 734.050781 47.183594 Z M 658.265625 249.941406 " fill-opacity="1" fill-rule="nonzero"/></g><g clip-path="url(#426d4d5a4f)"><path stroke-linecap="butt" transform="matrix(1.158296, 0, 0, 1.158296, -7829.980755, 2.374621)" fill="none" stroke-linejoin="round" d="M 7328.220572 213.733665 L 7286.959114 213.733665 L 7352.390647 38.685262 L 7393.648732 38.685262 Z M 7328.220572 213.733665 " stroke="#020000" stroke-width="1" stroke-opacity="1" stroke-miterlimit="2"/></g><g clip-path="url(#12c5827428)"><path fill="#100f0d" d="M 723.878906 249.527344 C 714.730469 249.527344 706.257812 248.191406 698.238281 245.527344 C 684.679688 240.746094 677.902344 231.738281 677.902344 218.5 C 677.902344 215.648438 678.242188 212.570312 678.917969 209.261719 C 679.371094 206.871094 680.273438 203.445312 681.742188 198.988281 C 683.210938 194.527344 684.679688 190.136719 686.261719 185.816406 C 687.957031 181.496094 689.199219 178.417969 690.101562 176.578125 L 738.226562 176.578125 C 738.226562 177.128906 736.757812 181.128906 733.933594 188.574219 L 728.058594 204.433594 C 726.929688 207.46875 726.363281 209.8125 726.363281 211.464844 C 726.363281 215.695312 728.964844 217.808594 734.046875 217.808594 C 738.679688 217.808594 742.632812 215.648438 746.019531 211.328125 C 747.039062 210.316406 747.714844 209.261719 748.28125 208.15625 L 750.652344 202.640625 C 754.832031 192.988281 756.976562 186.414062 756.976562 182.921875 C 756.976562 179.0625 755.171875 175.476562 751.78125 172.164062 C 749.410156 170.050781 746.925781 168.027344 744.324219 166.097656 L 734.613281 158.515625 C 729.980469 155.113281 725.800781 151.390625 721.960938 147.34375 C 716.195312 140.910156 713.375 133.140625 713.375 124.039062 C 713.375 118.617188 714.277344 112.871094 716.195312 106.800781 C 718.457031 98.621094 722.070312 90.484375 727.042969 82.394531 C 738.453125 64.652344 754.265625 53.757812 774.375 49.714844 C 782.167969 48.148438 789.625 47.367188 796.855469 47.367188 C 806.796875 47.367188 816.171875 48.886719 824.984375 51.917969 C 836.394531 55.964844 842.152344 63.363281 842.152344 74.121094 C 842.152344 80.371094 839.667969 89.566406 834.585938 101.699219 L 831.988281 108.59375 L 783.636719 108.59375 L 790.867188 88.875 C 791.320312 87.402344 791.546875 86.117188 791.546875 85.015625 C 791.546875 82.074219 789.851562 80.417969 786.347656 80.050781 L 785.21875 80.050781 C 782.734375 80.050781 780.25 80.671875 777.761719 81.910156 C 775.277344 83.152344 773.472656 85.015625 772.113281 87.496094 C 769.855469 92.460938 768.050781 97.425781 766.582031 102.390625 C 766.355469 103.492188 766.242188 104.503906 766.242188 105.421875 C 766.242188 108.273438 767.257812 110.664062 769.289062 112.59375 C 775.277344 119.121094 781.832031 125.328125 788.835938 131.210938 C 792.109375 133.96875 795.273438 136.816406 798.324219 139.757812 C 806.457031 147.480469 810.523438 156.582031 810.523438 167.0625 C 810.523438 169.269531 810.296875 171.523438 809.957031 173.820312 C 807.585938 189.265625 800.921875 204.433594 789.625 219.328125 C 778.667969 233.761719 764.546875 242.90625 747.601562 246.769531 C 739.355469 248.605469 731.449219 249.527344 723.878906 249.527344 Z M 723.878906 249.527344 " fill-opacity="1" fill-rule="nonzero"/></g><g clip-path="url(#f7c8a47719)"><path stroke-linecap="butt" transform="matrix(1.129656, 0, 0, 1.129656, -17368.572053, 18.056948)" fill="none" stroke-linejoin="round" d="M 16015.899651 204.903506 C 16007.801221 204.903506 16000.301009 203.7209 15993.201915 201.362604 C 15981.199502 197.130119 15975.200024 189.156173 15975.200024 177.437309 C 15975.200024 174.913033 15975.500862 172.188198 15976.099081 169.259346 C 15976.500199 167.143104 15977.298977 164.110515 15978.599152 160.165037 C 15979.899327 156.216101 15981.199502 152.329408 15982.599956 148.504957 C 15984.10069 144.680506 15985.200306 141.955671 15985.999084 140.326994 L 16028.600563 140.326994 C 16028.600563 140.81456 16027.300388 144.355462 16024.800317 150.946243 L 16019.599617 164.985367 C 16018.600281 167.672164 16018.098883 169.746912 16018.098883 171.209609 C 16018.098883 174.954528 16020.401853 176.825258 16024.900597 176.825258 C 16029.001681 176.825258 16032.501088 174.913033 16035.499098 171.088582 C 16036.401613 170.192982 16036.999832 169.259346 16037.501229 168.280757 L 16039.600182 163.398185 C 16043.300148 154.853684 16045.198542 149.034017 16045.198542 145.942644 C 16045.198542 142.526226 16043.600986 139.351863 16040.599519 136.419553 C 16038.500566 134.548823 16036.301334 132.757624 16033.998364 131.049416 L 16025.401994 124.337608 C 16021.30091 121.325766 16017.600944 118.030376 16014.201816 114.447979 C 16009.097938 108.752797 16006.601325 101.87501 16006.601325 93.818074 C 16006.601325 89.018492 16007.400103 83.931903 16009.097938 78.558307 C 16011.100069 71.317439 16014.298638 64.114608 16018.70056 56.953272 C 16028.801122 41.247434 16042.798751 31.603317 16060.600083 28.024378 C 16067.498618 26.637755 16074.099773 25.946172 16080.500368 25.946172 C 16089.300755 25.946172 16097.599744 27.2913 16105.400794 29.97464 C 16115.501356 33.557037 16120.598319 40.106323 16120.598319 49.629413 C 16120.598319 55.162073 16118.399087 63.301999 16113.900343 74.042274 L 16111.600831 80.145489 L 16068.798793 80.145489 L 16075.199389 62.689948 C 16075.600506 61.386315 16075.801065 60.248662 16075.801065 59.273531 C 16075.801065 56.669723 16074.300331 55.203568 16071.198584 54.878524 L 16070.199247 54.878524 C 16068.000015 54.878524 16065.800783 55.428332 16063.598093 56.524491 C 16061.398861 57.624107 16059.801305 59.273531 16058.597952 61.469305 C 16056.599279 65.864312 16055.001723 70.259318 16053.701548 74.654325 C 16053.500989 75.629456 16053.40071 76.525055 16053.40071 77.337664 C 16053.40071 79.86194 16054.299767 81.978183 16056.097881 83.686391 C 16061.398861 89.464563 16067.201238 94.959185 16073.401274 100.166801 C 16076.299005 102.608087 16079.099914 105.128905 16081.800543 107.732713 C 16088.999916 114.569006 16092.599603 122.625941 16092.599603 131.90352 C 16092.599603 133.85724 16092.399044 135.852456 16092.098206 137.885708 C 16089.999253 151.558293 16084.100055 164.985367 16074.099773 178.170386 C 16064.400329 190.947372 16051.899976 199.042344 16036.899552 202.46222 C 16029.5999 204.087438 16022.601085 204.903506 16015.899651 204.903506 Z M 16015.899651 204.903506 " stroke="#020000" stroke-width="1" stroke-opacity="1" stroke-miterlimit="2"/></g><g clip-path="url(#9b28414cf1)"><path fill="#100f0d" d="M 860.472656 249.625 L 812.785156 249.625 L 875.832031 81.1875 L 845.003906 81.1875 L 857.703125 47.5 L 966.703125 47.5 L 954.234375 81.1875 L 923.289062 81.1875 Z M 860.472656 249.625 " fill-opacity="1" fill-rule="nonzero"/></g><g clip-path="url(#3f52612bba)"><path stroke-linecap="butt" transform="matrix(1.154678, 0, 0, 1.154678, -18710.968765, -46.979467)" fill="none" stroke-linejoin="round" d="M 16949.697873 256.872041 L 16908.398477 256.872041 L 16962.999743 110.998026 L 16936.30128 110.998026 L 16947.299342 81.823223 L 17041.697962 81.823223 L 17030.899496 110.998026 L 17004.099544 110.998026 Z M 16949.697873 256.872041 " stroke="#020000" stroke-width="1" stroke-opacity="1" stroke-miterlimit="2"/></g><g clip-path="url(#4af1d531e1)"><path fill="#100f0d" d="M 979.210938 145.738281 C 979.210938 145.738281 1000.019531 125.113281 1027.542969 183.992188 C 1028.664062 186.386719 1031.796875 186.867188 1033.28125 184.679688 C 1048.160156 162.699219 1108.4375 80.222656 1188.015625 59.839844 C 1188.015625 59.839844 1102 107.496094 1057.792969 197.945312 C 1057.792969 197.945312 1040.953125 237.246094 1009.523438 231.632812 C 1009.523438 231.632812 1007.277344 186.71875 979.210938 145.738281 " fill-opacity="1" fill-rule="nonzero"/></g><g clip-path="url(#72792c8bf9)"><path fill="#000000" d="M 944.40625 224.683594 C 944.40625 225.527344 944.367188 226.367188 944.285156 227.207031 C 944.199219 228.046875 944.078125 228.882812 943.914062 229.707031 C 943.746094 230.535156 943.542969 231.351562 943.296875 232.160156 C 943.054688 232.96875 942.769531 233.761719 942.445312 234.539062 C 942.125 235.320312 941.765625 236.082031 941.367188 236.824219 C 940.96875 237.570312 940.535156 238.292969 940.066406 238.992188 C 939.597656 239.695312 939.097656 240.371094 938.5625 241.023438 C 938.027344 241.675781 937.460938 242.300781 936.863281 242.894531 C 936.265625 243.492188 935.644531 244.058594 934.992188 244.59375 C 934.339844 245.128906 933.664062 245.628906 932.960938 246.097656 C 932.257812 246.566406 931.539062 247 930.792969 247.398438 C 930.050781 247.796875 929.289062 248.15625 928.507812 248.476562 C 927.730469 248.800781 926.9375 249.085938 926.128906 249.328125 C 925.320312 249.574219 924.503906 249.78125 923.675781 249.945312 C 922.851562 250.109375 922.015625 250.230469 921.175781 250.316406 C 920.335938 250.398438 919.496094 250.4375 918.652344 250.4375 C 917.808594 250.4375 916.96875 250.398438 916.128906 250.316406 C 915.289062 250.230469 914.457031 250.109375 913.628906 249.945312 C 912.800781 249.78125 911.984375 249.574219 911.175781 249.328125 C 910.367188 249.085938 909.574219 248.800781 908.796875 248.476562 C 908.015625 248.15625 907.253906 247.796875 906.511719 247.398438 C 905.769531 247 905.046875 246.566406 904.34375 246.097656 C 903.640625 245.628906 902.964844 245.128906 902.3125 244.59375 C 901.660156 244.058594 901.039062 243.492188 900.441406 242.894531 C 899.84375 242.300781 899.277344 241.675781 898.742188 241.023438 C 898.207031 240.371094 897.707031 239.695312 897.238281 238.992188 C 896.769531 238.292969 896.335938 237.570312 895.9375 236.824219 C 895.539062 236.082031 895.179688 235.320312 894.859375 234.539062 C 894.535156 233.761719 894.25 232.96875 894.007812 232.160156 C 893.761719 231.351562 893.558594 230.535156 893.390625 229.707031 C 893.226562 228.882812 893.105469 228.046875 893.019531 227.207031 C 892.9375 226.367188 892.898438 225.527344 892.898438 224.683594 C 892.898438 223.839844 892.9375 223 893.019531 222.160156 C 893.105469 221.320312 893.226562 220.488281 893.390625 219.660156 C 893.558594 218.832031 893.761719 218.015625 894.007812 217.207031 C 894.25 216.402344 894.535156 215.605469 894.859375 214.828125 C 895.179688 214.046875 895.539062 213.285156 895.9375 212.542969 C 896.335938 211.800781 896.769531 211.078125 897.238281 210.375 C 897.707031 209.671875 898.207031 208.996094 898.742188 208.34375 C 899.277344 207.691406 899.84375 207.070312 900.441406 206.472656 C 901.039062 205.875 901.660156 205.308594 902.3125 204.773438 C 902.964844 204.238281 903.640625 203.738281 904.34375 203.269531 C 905.046875 202.800781 905.769531 202.367188 906.511719 201.96875 C 907.253906 201.574219 908.015625 201.210938 908.796875 200.890625 C 909.574219 200.566406 910.367188 200.28125 911.175781 200.039062 C 911.984375 199.792969 912.800781 199.589844 913.628906 199.421875 C 914.457031 199.257812 915.289062 199.136719 916.128906 199.054688 C 916.96875 198.96875 917.808594 198.929688 918.652344 198.929688 C 919.496094 198.929688 920.335938 198.96875 921.175781 199.054688 C 922.015625 199.136719 922.851562 199.257812 923.675781 199.421875 C 924.503906 199.589844 925.320312 199.792969 926.128906 200.039062 C 926.9375 200.28125 927.730469 200.566406 928.507812 200.890625 C 929.289062 201.210938 930.050781 201.574219 930.792969 201.96875 C 931.539062 202.367188 932.257812 202.800781 932.960938 203.269531 C 933.664062 203.738281 934.339844 204.238281 934.992188 204.773438 C 935.644531 205.308594 936.265625 205.875 936.863281 206.472656 C 937.460938 207.070312 938.027344 207.691406 938.5625 208.34375 C 939.097656 208.996094 939.597656 209.671875 940.066406 210.375 C 940.535156 211.078125 940.96875 211.800781 941.367188 212.542969 C 941.765625 213.285156 942.125 214.046875 942.445312 214.828125 C 942.769531 215.605469 943.054688 216.402344 943.296875 217.207031 C 943.542969 218.015625 943.746094 218.832031 943.914062 219.660156 C 944.078125 220.488281 944.199219 221.320312 944.285156 222.160156 C 944.367188 223 944.40625 223.839844 944.40625 224.683594 Z M 944.40625 224.683594 " fill-opacity="1" fill-rule="nonzero"/></g></svg>