<svg xmlns="http://www.w3.org/2000/svg" xmlns:xlink="http://www.w3.org/1999/xlink" width="40" zoomAndPan="magnify" viewBox="0 0 30 30.000001" height="40" preserveAspectRatio="xMidYMid meet" version="1.0"><defs><clipPath id="15e3d60124"><path d="M 3 0.957031 L 29.273438 0.957031 L 29.273438 27 L 3 27 Z M 3 0.957031 " clip-rule="nonzero"/></clipPath><clipPath id="27818c0927"><path d="M 0.964844 1 L 28 1 L 28 27.808594 L 0.964844 27.808594 Z M 0.964844 1 " clip-rule="nonzero"/></clipPath><clipPath id="c18f95486c"><path d="M 10.355469 6.675781 L 13.984375 6.675781 L 13.984375 10.304688 L 10.355469 10.304688 Z M 10.355469 6.675781 " clip-rule="nonzero"/></clipPath></defs><g clip-path="url(#15e3d60124)"><path fill="#ffcc00" d="M 16.296875 0.957031 C 23.457031 0.957031 29.269531 6.65625 29.269531 13.699219 C 29.269531 20.730469 23.457031 26.4375 16.296875 26.4375 C 9.125 26.4375 3.3125 20.730469 3.3125 13.699219 C 3.3125 6.65625 9.125 0.957031 16.296875 0.957031 Z M 14.535156 15.828125 C 13.527344 14.605469 12 12.589844 10.816406 13.378906 C 10.0625 13.878906 9.703125 14.453125 10.019531 15.09375 C 10.351562 15.761719 13.347656 18.640625 14.113281 19.0625 C 15.152344 19.636719 15.867188 18.917969 16.515625 17.683594 C 18.042969 14.789062 19.957031 10.976562 24.367188 8.125 C 22.765625 8.410156 19.664062 10.507812 18.84375 11.183594 C 16.816406 12.875 15.011719 15.300781 14.535156 15.828125 Z M 14.535156 15.828125 " fill-opacity="1" fill-rule="evenodd"/></g><g clip-path="url(#27818c0927)"><path fill="#000000" d="M 14.242188 1.738281 C 17.773438 1.738281 21.136719 3.101562 23.636719 5.554688 C 26.128906 8.003906 27.515625 11.304688 27.515625 14.773438 C 27.515625 18.242188 26.128906 21.542969 23.636719 23.992188 C 21.136719 26.445312 17.773438 27.808594 14.242188 27.808594 C 10.710938 27.808594 7.355469 26.445312 4.855469 23.992188 C 2.355469 21.542969 0.964844 18.242188 0.964844 14.773438 C 0.964844 11.304688 2.355469 8.003906 4.855469 5.554688 C 7.355469 3.101562 10.710938 1.738281 14.242188 1.738281 Z M 23.207031 5.972656 C 20.820312 3.625 17.617188 2.328125 14.242188 2.328125 C 10.871094 2.328125 7.664062 3.625 5.277344 5.972656 C 2.898438 8.316406 1.566406 11.457031 1.566406 14.773438 C 1.566406 18.082031 2.898438 21.234375 5.277344 23.578125 C 7.664062 25.914062 10.871094 27.222656 14.242188 27.222656 C 17.617188 27.222656 20.820312 25.914062 23.207031 23.578125 C 25.59375 21.234375 26.917969 18.085938 26.917969 14.773438 C 26.917969 11.457031 25.59375 8.316406 23.207031 5.972656 Z M 23.207031 5.972656 " fill-opacity="1" fill-rule="evenodd"/></g><g clip-path="url(#c18f95486c)"><path fill="#ffcc00" d="M 10.355469 6.675781 L 13.984375 6.675781 L 13.984375 10.304688 L 10.355469 10.304688 Z M 10.355469 6.675781 " fill-opacity="1" fill-rule="nonzero"/></g></svg>